<?xml version="1.0" encoding="utf-8"?>
<svg xmlns="http://www.w3.org/2000/svg" viewBox="0 0 1024 1024" preserveAspectRatio="xMidYMid meet">
  <g>
    <path fill="#000000" stroke="#000000" d="M 615.385 374.154 C 660.535 186.323 216.748 -25.38 146.461 103.385 C -62.986 487.093 18.614 798.088 213.222 912.133 C 407.83 1026.18 721.682 952.633 985.846 640.001 C 997.281 555.739 951.241 440.257 893.67 339.735 C 836.099 239.213 750.996 124.113 729.845 136.615 C 828.832 304.711 504.585 701.94 345.085 649.684 C 328.052 644.104 312.897 633.397 300.338 616.738 C 170.171 444.081 615.385 374.154 615.385 374.154 Z"/>
  </g>
  <path fill="#ffffff" stroke="#000000" d="M 183.385 304 C 0.118 264.802 147.061 786.766 323.692 891.077 C 466.973 878.406 707.917 769.209 790.154 635.077 C 830.949 578.642 838.218 299.958 779.078 329.846 L 716.308 454.154 C 650.211 575.954 542.714 665.979 392.616 718.769 C 177.775 783.104 243.413 321.589 183.385 304 Z"/>
</svg>
